<svg width="305" height="305" viewBox="0 0 305 305" fill="none" xmlns="http://www.w3.org/2000/svg">
<circle cx="153" cy="152" r="150" fill="#1888ED"/>
<circle cx="153" cy="152" r="139.5" fill="#1888ED" stroke="#1888ED"/>
<path d="M100.42 201.72C96.5933 204.8 92.37 206.993 87.75 208.3C83.13 209.56 78.0667 210.19 72.56 210.19C65.84 210.19 59.7967 208.743 54.43 205.85C49.0633 202.91 44.5133 198.943 40.78 193.95C37.0467 188.957 34.1767 183.123 32.17 176.45C30.21 169.777 29.23 162.66 29.23 155.1C29.23 148.053 30.1167 141.38 31.89 135.08C33.71 128.733 36.4633 123.18 40.15 118.42C43.8367 113.613 48.5033 109.81 54.15 107.01C59.7967 104.21 66.47 102.81 74.17 102.81C79.5367 102.81 84.6 103.673 89.36 105.4C94.1667 107.08 98.25 109.53 101.61 112.75L95.31 120.24C93.07 118.747 90.2467 117.44 86.84 116.32C83.48 115.2 79.63 114.64 75.29 114.64C69.5967 114.64 64.7667 115.713 60.8 117.86C56.8333 120.007 53.59 122.923 51.07 126.61C48.55 130.25 46.7067 134.52 45.54 139.42C44.42 144.273 43.86 149.43 43.86 154.89C43.86 158.11 44.1167 161.423 44.63 164.83C45.1433 168.19 45.9133 171.48 46.94 174.7C48.0133 177.92 49.3667 180.953 51 183.8C52.68 186.647 54.64 189.143 56.88 191.29C59.1667 193.437 61.7567 195.14 64.65 196.4C67.5433 197.66 70.7867 198.29 74.38 198.29C76.48 198.29 78.3933 198.197 80.12 198.01C81.8467 197.823 83.5033 197.52 85.09 197.1C86.7233 196.68 88.3333 196.143 89.92 195.49C91.5067 194.79 93.21 193.927 95.03 192.9L100.42 201.72ZM118.845 104C120.292 103.86 122.019 103.743 124.025 103.65C126.032 103.557 128.085 103.487 130.185 103.44C132.332 103.347 134.432 103.3 136.485 103.3C138.585 103.253 140.405 103.23 141.945 103.23C149.365 103.23 156.225 104.14 162.525 105.96C168.872 107.78 174.355 110.673 178.975 114.64C183.595 118.607 187.212 123.693 189.825 129.9C192.439 136.107 193.745 143.573 193.745 152.3C193.745 159.113 193.092 165.25 191.785 170.71C190.479 176.123 188.659 180.93 186.325 185.13C184.039 189.33 181.262 192.947 177.995 195.98C174.775 198.967 171.205 201.44 167.285 203.4C163.412 205.313 159.282 206.737 154.895 207.67C150.509 208.557 145.982 209 141.315 209H120.945V118.7L118.845 104ZM135.645 128.5V197.8H137.045C143.812 197.8 149.552 197.1 154.265 195.7C158.979 194.3 162.875 192.457 165.955 190.17C169.082 187.837 171.509 185.177 173.235 182.19C175.009 179.157 176.315 176.03 177.155 172.81C178.042 169.59 178.579 166.393 178.765 163.22C178.952 160.047 179.045 157.107 179.045 154.4C179.045 148.473 178.532 143.037 177.505 138.09C176.479 133.097 174.589 128.827 171.835 125.28C169.082 121.687 165.232 118.91 160.285 116.95C155.385 114.943 149.062 113.94 141.315 113.94C140.569 113.94 139.775 113.963 138.935 114.01C138.095 114.057 137.302 114.127 136.555 114.22C135.715 114.313 134.829 114.407 133.895 114.5L135.645 128.5ZM226 209H211.3V118.7L208.85 104.7C210.25 104.467 211.953 104.257 213.96 104.07C216.013 103.883 218.183 103.72 220.47 103.58C222.757 103.44 225.043 103.347 227.33 103.3C229.617 103.207 231.67 103.16 233.49 103.16C238.857 103.16 243.99 103.65 248.89 104.63C253.837 105.563 258.2 107.15 261.98 109.39C265.76 111.63 268.77 114.57 271.01 118.21C273.25 121.85 274.37 126.353 274.37 131.72C274.37 138.253 273.203 143.69 270.87 148.03C268.537 152.323 265.247 155.753 261 158.32C256.753 160.887 251.643 162.707 245.67 163.78C239.743 164.807 233.187 165.32 226 165.32V209ZM226 128.71V155.45C231.6 155.45 236.57 155.123 240.91 154.47C245.25 153.817 248.913 152.65 251.9 150.97C254.887 149.243 257.15 146.887 258.69 143.9C260.23 140.913 261 137.063 261 132.35C261 128.85 260.253 125.863 258.76 123.39C257.313 120.917 255.423 118.887 253.09 117.3C250.757 115.713 248.143 114.57 245.25 113.87C242.357 113.123 239.487 112.75 236.64 112.75C235.847 112.75 234.89 112.797 233.77 112.89C232.697 112.937 231.6 113.007 230.48 113.1C229.36 113.193 228.263 113.31 227.19 113.45C226.163 113.59 225.3 113.73 224.6 113.87L226 128.71Z" fill="#E5E5E5"/>
</svg>
